<?xml version="1.0" encoding="utf-8"?><svg xmlns="http://www.w3.org/2000/svg" xmlns:xlink="http://www.w3.org/1999/xlink"><symbol fill="none" viewBox="0 0 12 14" id="calendar" xmlns="http://www.w3.org/2000/svg"><path d="M10.667 1.75h-.584V.583H8.917V1.75H3.083V.583H1.917V1.75h-.584A1.17 1.17 0 0 0 .167 2.917v9.333a1.17 1.17 0 0 0 1.166 1.167h9.334a1.17 1.17 0 0 0 1.166-1.167V2.917a1.17 1.17 0 0 0-1.166-1.167Zm0 10.5H1.333V4.667h9.334v7.583Z" fill="currentColor"/></symbol><symbol fill="none" viewBox="0 0 20 20" id="close" xmlns="http://www.w3.org/2000/svg"><circle cx="10" cy="10" r="10" fill="#999"/><path fill="#fff" d="m6.207 5.5 8.485 8.485-.707.707L5.5 6.207z"/><path fill="#fff" d="M5.59 13.985 14.077 5.5l.707.707-8.485 8.486z"/></symbol><symbol fill="none" viewBox="0 0 191 31" id="logo" xmlns="http://www.w3.org/2000/svg"><path d="M43 25V4h5.55v7.8h8.1V4h5.55v21h-5.55v-8.1h-8.1V25H43ZM65.486 5.2c0-.72.27-1.32.81-1.8.54-.5 1.22-.75 2.04-.75.82 0 1.5.25 2.04.75.54.48.81 1.08.81 1.8 0 .7-.27 1.3-.81 1.8s-1.22.75-2.04.75c-.82 0-1.5-.25-2.04-.75s-.81-1.1-.81-1.8Zm.3 19.8V9.4h5.1V25h-5.1ZM75.454 22.63c-1.34-1.48-2.01-3.39-2.01-5.73 0-2.34.67-4.25 2.01-5.73 1.34-1.48 2.97-2.22 4.89-2.22 1.38 0 2.57.4 3.57 1.2.46.36.82.76 1.08 1.2h.3V9.4h5.1v21.3h-14.85v-4.05h9.75V22.6h-.3c-.28.44-.64.82-1.08 1.14-.98.74-2.17 1.11-3.57 1.11-1.92 0-3.55-.74-4.89-2.22Zm4.14-8.37c-.6.64-.9 1.52-.9 2.64s.3 2 .9 2.64c.6.64 1.4.96 2.4.96s1.8-.32 2.4-.96c.6-.64.9-1.52.9-2.64s-.3-2-.9-2.64c-.6-.64-1.4-.96-2.4-.96s-1.8.32-2.4.96ZM93.38 25V4h5.1v7.5h.3c.28-.48.64-.9 1.08-1.26 1.02-.86 2.21-1.29 3.57-1.29 1.84 0 3.27.56 4.29 1.68 1.04 1.1 1.56 2.69 1.56 4.77V25h-5.1v-8.85c0-.9-.24-1.6-.72-2.1s-1.14-.75-1.98-.75c-.86 0-1.58.32-2.16.96-.56.62-.84 1.45-.84 2.49V25h-5.1ZM120.538 30.7V9.4h5.1v2.1h.3c.28-.46.66-.88 1.14-1.26 1.1-.86 2.27-1.29 3.51-1.29 1.92 0 3.55.76 4.89 2.28 1.34 1.5 2.01 3.49 2.01 5.97 0 2.48-.67 4.48-2.01 6-1.34 1.5-2.97 2.25-4.89 2.25-1.26 0-2.43-.42-3.51-1.26a4.61 4.61 0 0 1-1.14-1.29h-.3v7.8h-5.1Zm6-16.38c-.6.68-.9 1.64-.9 2.88s.3 2.2.9 2.88c.6.68 1.4 1.02 2.4 1.02s1.8-.34 2.4-1.02c.6-.68.9-1.64.9-2.88s-.3-2.2-.9-2.88c-.6-.68-1.4-1.02-2.4-1.02s-1.8.34-2.4 1.02ZM141.284 23.2c-1.34-1.52-2.01-3.52-2.01-6s.67-4.47 2.01-5.97c1.34-1.52 2.97-2.28 4.89-2.28 1.24 0 2.41.43 3.51 1.29.46.38.84.8 1.14 1.26h.3V9.4h5.1V25h-5.1v-2.1h-.3c-.28.48-.66.91-1.14 1.29-1.08.84-2.25 1.26-3.51 1.26-1.92 0-3.55-.75-4.89-2.25Zm4.14-8.88c-.6.68-.9 1.64-.9 2.88s.3 2.2.9 2.88c.6.68 1.4 1.02 2.4 1.02s1.8-.34 2.4-1.02c.6-.68.9-1.64.9-2.88s-.3-2.2-.9-2.88c-.6-.68-1.4-1.02-2.4-1.02s-1.8.34-2.4 1.02ZM158.31 19.9h5.1c.08.3.25.58.51.84.54.54 1.32.81 2.34.81 1.4 0 2.1-.35 2.1-1.05 0-.32-.2-.57-.6-.75-.4-.2-1-.4-1.8-.6-.66-.16-1.09-.26-1.29-.3-.2-.04-.62-.15-1.26-.33-.64-.2-1.1-.37-1.38-.51-.26-.16-.63-.38-1.11-.66-.46-.3-.8-.6-1.02-.9-.2-.32-.39-.71-.57-1.17-.18-.48-.27-.99-.27-1.53 0-1.32.59-2.45 1.77-3.39 1.18-.94 2.84-1.41 4.98-1.41 2.68 0 4.8.88 6.36 2.64a6.53 6.53 0 0 1 1.29 2.61h-4.95c-.12-.32-.26-.57-.42-.75-.46-.5-1.12-.75-1.98-.75-1.2 0-1.8.35-1.8 1.05 0 .34.2.6.6.78.4.18 1.01.35 1.83.51 2.06.48 3.45.9 4.17 1.26 1.8.88 2.7 2.23 2.7 4.05 0 1.44-.64 2.65-1.92 3.63-1.26.98-3.07 1.47-5.43 1.47-2.9 0-5.11-.92-6.63-2.76a6.113 6.113 0 0 1-1.32-2.79ZM174.951 19.9h5.1c.08.3.25.58.51.84.54.54 1.32.81 2.34.81 1.4 0 2.1-.35 2.1-1.05 0-.32-.2-.57-.6-.75-.4-.2-1-.4-1.8-.6-.66-.16-1.09-.26-1.29-.3-.2-.04-.62-.15-1.26-.33-.64-.2-1.1-.37-1.38-.51-.26-.16-.63-.38-1.11-.66-.46-.3-.8-.6-1.02-.9-.2-.32-.39-.71-.57-1.17-.18-.48-.27-.99-.27-1.53 0-1.32.59-2.45 1.77-3.39 1.18-.94 2.84-1.41 4.98-1.41 2.68 0 4.8.88 6.36 2.64a6.53 6.53 0 0 1 1.29 2.61h-4.95c-.12-.32-.26-.57-.42-.75-.46-.5-1.12-.75-1.98-.75-1.2 0-1.8.35-1.8 1.05 0 .34.2.6.6.78.4.18 1.01.35 1.83.51 2.06.48 3.45.9 4.17 1.26 1.8.88 2.7 2.23 2.7 4.05 0 1.44-.64 2.65-1.92 3.63-1.26.98-3.07 1.47-5.43 1.47-2.9 0-5.11-.92-6.63-2.76a6.113 6.113 0 0 1-1.32-2.79Z" fill="#fff"/><path fill-rule="evenodd" clip-rule="evenodd" d="M6 6v18h18L6 6ZM0 0v30h30V0H0Z" fill="#FF6E30"/></symbol><symbol fill="none" viewBox="0 0 25 25" id="search" xmlns="http://www.w3.org/2000/svg"><path d="m24.911 22.814-5.057-4.457c1.487-1.98 2.292-4.403 2.292-6.95 0-3.05-1.156-5.909-3.245-8.065C16.812 1.186 14.03 0 11.073 0c-2.957 0-5.74 1.19-7.829 3.342C1.152 5.494 0 8.357 0 11.407c0 3.045 1.155 5.912 3.244 8.064 2.09 2.156 4.869 3.343 7.829 3.343 2.473 0 4.82-.83 6.743-2.358l5.058 4.453a.3.3 0 0 0 .214.091.294.294 0 0 0 .214-.091l1.61-1.654a.312.312 0 0 0 .088-.22.319.319 0 0 0-.089-.221ZM16.92 17.43c-1.565 1.608-3.639 2.494-5.846 2.494-2.207 0-4.282-.886-5.847-2.494a8.603 8.603 0 0 1-2.42-6.023c0-2.274.86-4.415 2.42-6.023 1.565-1.608 3.64-2.494 5.847-2.494 2.207 0 4.285.882 5.846 2.494a8.602 8.602 0 0 1 2.422 6.023c0 2.274-.86 4.414-2.422 6.023Z" fill="#fff"/></symbol><symbol fill="none" viewBox="0 0 18 18" id="telephone" xmlns="http://www.w3.org/2000/svg"><path d="M16.343 12.098a10.49 10.49 0 0 1-3.236-.513.896.896 0 0 0-.926.22l-1.44 1.806c-2.593-1.238-5.023-3.575-6.315-6.261l1.787-1.522a.935.935 0 0 0 .22-.935 10.223 10.223 0 0 1-.513-3.236.916.916 0 0 0-.907-.907H1.84C1.346.75.75.97.75 1.657c0 8.516 7.086 15.593 15.593 15.593.65 0 .907-.578.907-1.082v-3.162a.916.916 0 0 0-.907-.908Z" fill="#FF6E30"/></symbol></svg>